<?xml version="1.0" standalone="no"?><!-- Generator: Gravit.io --><svg xmlns="http://www.w3.org/2000/svg" xmlns:xlink="http://www.w3.org/1999/xlink" style="isolation:isolate" viewBox="50 50 16 16" width="16" height="16"><path d=" M 53.755 50 L 56.129 50 L 58 61.52 L 58 66 L 56.803 66 L 56.065 62.032 L 52.728 62.032 Q 51.384 61.897 50.679 61.065 Q 49.975 60.234 50.001 58.928 L 50.001 54.064 L 54.525 54.064 L 53.755 50 M 52.054 56.432 L 54.974 56.432 L 55.584 59.664 L 53.177 59.664 Q 52.635 59.575 52.353 59.247 Q 52.072 58.919 52.054 58.448 L 52.054 56.432 M 53.755 50 Z  M 62.245 50 L 59.871 50 L 58 61.52 L 58 66 L 59.197 66 L 59.935 62.032 L 63.272 62.032 Q 64.616 61.897 65.321 61.065 Q 66.025 60.234 65.999 58.928 L 65.999 54.064 L 61.475 54.064 L 62.245 50 Z  M 63.946 56.432 L 61.026 56.432 L 60.416 59.664 L 62.823 59.664 Q 63.365 59.575 63.647 59.247 Q 63.928 58.919 63.946 58.448 L 63.946 56.432 Z " fill-rule="evenodd" fill="rgb(255,255,255)"/></svg>