<?xml version="1.0" standalone="no"?><!-- Generator: Gravit.io --><svg xmlns="http://www.w3.org/2000/svg" xmlns:xlink="http://www.w3.org/1999/xlink" style="isolation:isolate" viewBox="50 50 156 156" width="156" height="156"><path d=" M 86.611 50 L 109.762 50 L 128 162.32 L 128 206 L 116.331 206 L 109.136 167.312 L 76.601 167.312 Q 63.495 165.993 56.625 157.886 Q 49.754 149.779 50.009 137.048 L 50.009 89.624 L 94.12 89.624 L 86.611 50 M 70.031 112.712 L 98.499 112.712 L 104.443 144.224 L 80.98 144.224 Q 75.687 143.357 72.943 140.158 Q 70.198 136.959 70.031 132.368 L 70.031 112.712 M 86.611 50 Z  M 169.389 50 L 146.238 50 L 128 162.32 L 128 206 L 139.669 206 L 146.864 167.312 L 179.399 167.312 Q 192.505 165.993 199.375 157.886 Q 206.246 149.779 205.991 137.048 L 205.991 89.624 L 161.88 89.624 L 169.389 50 Z  M 185.969 112.712 L 157.501 112.712 L 151.557 144.224 L 175.02 144.224 Q 180.313 143.357 183.057 140.158 Q 185.802 136.959 185.969 132.368 L 185.969 112.712 Z " fill-rule="evenodd" fill="rgb(255,255,255)"/></svg>